STARTFONT 2.1
FONT -DEC-NarkissTam-Bold-O-Normal--10-100-75-75-P-60-ISO8859-8
SIZE 10 75 75
FONTBOUNDINGBOX 11 11 0 -2

STARTPROPERTIES 26
FONTNAME_REGISTRY ""
FAMILY_NAME "NarkissTam"
FOUNDRY "DEC"
WEIGHT_NAME "Bold"
SETWIDTH_NAME "Normal"
SLANT "O"
ADD_STYLE_NAME ""
PIXEL_SIZE 10
RESOLUTION_X 75
RESOLUTION_Y 75
SPACING "P"
AVERAGE_WIDTH 60
CHARSET_REGISTRY "ISO8859"
CHARSET_ENCODING "8"
CHARSET_COLLECTIONS "ASCII ISO8859-8 "
FULL_NAME "NarkissTam Bold Oblique"
COPYRIGHT "Digital Israel"
CAP_HEIGHT 8
X_HEIGHT 6
_DEC_DEVICE_FONTNAMES "PS=NarkissTam-BoldOblique-ISOLatinHebrew"
QUAD_WIDTH 6
POINT_SIZE 100
WEIGHT 10
DEFAULT_CHAR 0
FONT_DESCENT 2
FONT_ASCENT 10
ENDPROPERTIES

CHARS 152

STARTCHAR space
ENCODING 32
SWIDTH 288 0
DWIDTH 3 0
BBX 1 1 0 0
BITMAP
00
ENDCHAR

STARTCHAR exclam
ENCODING 33
SWIDTH 384 0
DWIDTH 4 0
BBX 4 8 1 0
BITMAP
30
30
60
60
40
40
00
C0
ENDCHAR

STARTCHAR quotedbl
ENCODING 34
SWIDTH 576 0
DWIDTH 6 0
BBX 6 3 1 5
BITMAP
6C
48
90
ENDCHAR

STARTCHAR numbersign
ENCODING 35
SWIDTH 672 0
DWIDTH 7 0
BBX 7 7 0 0
BITMAP
14
14
7E
28
FC
50
50
ENDCHAR

STARTCHAR dollar
ENCODING 36
SWIDTH 576 0
DWIDTH 6 0
BBX 6 9 0 -1
BITMAP
08
38
7C
50
78
28
F8
70
40
ENDCHAR

STARTCHAR percent
ENCODING 37
SWIDTH 864 0
DWIDTH 9 0
BBX 8 8 1 0
BITMAP
61
D2
64
08
10
2C
5A
8C
ENDCHAR

STARTCHAR ampersand
ENCODING 38
SWIDTH 768 0
DWIDTH 8 0
BBX 7 8 0 0
BITMAP
1C
34
2C
38
7A
CE
DC
76
ENDCHAR

STARTCHAR quoteright
ENCODING 39
SWIDTH 288 0
DWIDTH 3 0
BBX 2 3 2 5
BITMAP
C0
40
80
ENDCHAR

STARTCHAR parenleft
ENCODING 40
SWIDTH 480 0
DWIDTH 5 0
BBX 5 10 0 -2
BITMAP
18
30
60
60
C0
C0
C0
60
60
30
ENDCHAR

STARTCHAR parenright
ENCODING 41
SWIDTH 480 0
DWIDTH 5 0
BBX 5 10 0 -2
BITMAP
60
30
30
18
18
18
30
30
60
C0
ENDCHAR

STARTCHAR asterisk
ENCODING 42
SWIDTH 576 0
DWIDTH 6 0
BBX 4 4 2 4
BITMAP
20
F0
60
A0
ENDCHAR

STARTCHAR plus
ENCODING 43
SWIDTH 576 0
DWIDTH 6 0
BBX 5 5 1 1
BITMAP
30
30
F8
60
60
ENDCHAR

STARTCHAR comma
ENCODING 44
SWIDTH 288 0
DWIDTH 3 0
BBX 2 4 0 -2
BITMAP
40
40
40
80
ENDCHAR

STARTCHAR minus
ENCODING 45
SWIDTH 672 0
DWIDTH 7 0
BBX 5 1 1 3
BITMAP
F8
ENDCHAR

STARTCHAR period
ENCODING 46
SWIDTH 288 0
DWIDTH 3 0
BBX 1 2 1 0
BITMAP
80
80
ENDCHAR

STARTCHAR slash
ENCODING 47
SWIDTH 480 0
DWIDTH 5 0
BBX 6 8 0 0
BITMAP
0C
18
10
30
20
60
40
C0
ENDCHAR

STARTCHAR zero
ENCODING 48
SWIDTH 576 0
DWIDTH 6 0
BBX 6 8 0 0
BITMAP
38
6C
4C
CC
CC
C8
D8
70
ENDCHAR

STARTCHAR one
ENCODING 49
SWIDTH 576 0
DWIDTH 6 0
BBX 4 8 2 0
BITMAP
30
F0
60
60
60
C0
C0
C0
ENDCHAR

STARTCHAR two
ENCODING 50
SWIDTH 576 0
DWIDTH 6 0
BBX 6 8 0 0
BITMAP
38
6C
0C
38
60
C0
C0
F8
ENDCHAR

STARTCHAR three
ENCODING 51
SWIDTH 576 0
DWIDTH 6 0
BBX 6 8 0 0
BITMAP
38
6C
0C
30
18
18
D8
70
ENDCHAR

STARTCHAR four
ENCODING 52
SWIDTH 576 0
DWIDTH 6 0
BBX 6 8 0 0
BITMAP
0C
1C
28
58
98
F8
30
30
ENDCHAR

STARTCHAR five
ENCODING 53
SWIDTH 576 0
DWIDTH 6 0
BBX 6 8 0 0
BITMAP
3C
20
60
70
18
18
D8
70
ENDCHAR

STARTCHAR six
ENCODING 54
SWIDTH 576 0
DWIDTH 6 0
BBX 6 8 0 0
BITMAP
38
6C
60
F8
D8
D8
D8
70
ENDCHAR

STARTCHAR seven
ENCODING 55
SWIDTH 576 0
DWIDTH 6 0
BBX 5 8 1 0
BITMAP
F8
18
30
30
60
60
C0
C0
ENDCHAR

STARTCHAR eight
ENCODING 56
SWIDTH 576 0
DWIDTH 6 0
BBX 6 8 0 0
BITMAP
38
6C
6C
78
D8
D8
D8
70
ENDCHAR

STARTCHAR nine
ENCODING 57
SWIDTH 576 0
DWIDTH 6 0
BBX 6 8 0 0
BITMAP
38
6C
6C
6C
3C
0C
D8
70
ENDCHAR

STARTCHAR colon
ENCODING 58
SWIDTH 288 0
DWIDTH 3 0
BBX 2 6 1 0
BITMAP
40
40
00
00
80
80
ENDCHAR

STARTCHAR semicolon
ENCODING 59
SWIDTH 288 0
DWIDTH 3 0
BBX 3 8 0 -2
BITMAP
20
20
00
00
40
40
40
80
ENDCHAR

STARTCHAR less
ENCODING 60
SWIDTH 576 0
DWIDTH 6 0
BBX 5 5 1 1
BITMAP
18
70
C0
60
30
ENDCHAR

STARTCHAR equal
ENCODING 61
SWIDTH 576 0
DWIDTH 6 0
BBX 5 3 1 2
BITMAP
78
00
F0
ENDCHAR

STARTCHAR greater
ENCODING 62
SWIDTH 672 0
DWIDTH 7 0
BBX 5 5 1 1
BITMAP
60
30
18
70
C0
ENDCHAR

STARTCHAR question
ENCODING 63
SWIDTH 576 0
DWIDTH 6 0
BBX 6 8 1 0
BITMAP
38
6C
0C
38
60
60
00
C0
ENDCHAR

STARTCHAR at
ENCODING 64
SWIDTH 960 0
DWIDTH 10 0
BBX 9 9 0 -2
BITMAP
1E00
6100
4E80
9480
A480
AD00
B600
4000
3C00
ENDCHAR

STARTCHAR A
ENCODING 65
SWIDTH 768 0
DWIDTH 8 0
BBX 7 8 0 0
BITMAP
0C
1C
36
36
66
7E
C6
C6
ENDCHAR

STARTCHAR B
ENCODING 66
SWIDTH 672 0
DWIDTH 7 0
BBX 7 8 0 0
BITMAP
3E
32
66
7C
66
C6
CC
F8
ENDCHAR

STARTCHAR C
ENCODING 67
SWIDTH 672 0
DWIDTH 7 0
BBX 7 8 0 0
BITMAP
1C
36
66
60
C0
C4
CC
78
ENDCHAR

STARTCHAR D
ENCODING 68
SWIDTH 768 0
DWIDTH 8 0
BBX 8 8 0 0
BITMAP
3E
33
63
63
66
C6
CC
F8
ENDCHAR

STARTCHAR E
ENCODING 69
SWIDTH 576 0
DWIDTH 6 0
BBX 7 8 0 0
BITMAP
3E
30
60
7C
60
C0
C0
F8
ENDCHAR

STARTCHAR F
ENCODING 70
SWIDTH 480 0
DWIDTH 5 0
BBX 7 8 0 0
BITMAP
3E
30
60
78
60
C0
C0
C0
ENDCHAR

STARTCHAR G
ENCODING 71
SWIDTH 768 0
DWIDTH 8 0
BBX 8 8 0 0
BITMAP
1E
33
60
60
CF
C6
CC
7C
ENDCHAR

STARTCHAR H
ENCODING 72
SWIDTH 672 0
DWIDTH 7 0
BBX 8 8 0 0
BITMAP
33
33
66
7E
66
CC
CC
CC
ENDCHAR

STARTCHAR I
ENCODING 73
SWIDTH 288 0
DWIDTH 3 0
BBX 4 8 0 0
BITMAP
30
30
60
60
60
C0
C0
C0
ENDCHAR

STARTCHAR J
ENCODING 74
SWIDTH 576 0
DWIDTH 6 0
BBX 7 8 0 0
BITMAP
06
06
0C
0C
0C
D8
D8
70
ENDCHAR

STARTCHAR K
ENCODING 75
SWIDTH 768 0
DWIDTH 8 0
BBX 8 8 0 0
BITMAP
33
36
6C
78
78
CC
C6
C6
ENDCHAR

STARTCHAR L
ENCODING 76
SWIDTH 576 0
DWIDTH 6 0
BBX 5 8 0 0
BITMAP
30
30
60
60
60
C0
C0
F8
ENDCHAR

STARTCHAR M
ENCODING 77
SWIDTH 960 0
DWIDTH 10 0
BBX 11 8 0 0
BITMAP
3060
30E0
79C0
6BC0
6EC0
CD80
CD80
C980
ENDCHAR

STARTCHAR N
ENCODING 78
SWIDTH 768 0
DWIDTH 8 0
BBX 9 8 0 0
BITMAP
3180
3180
7300
7B00
6B00
CE00
C600
C600
ENDCHAR

STARTCHAR O
ENCODING 79
SWIDTH 768 0
DWIDTH 8 0
BBX 8 8 0 0
BITMAP
1E
33
63
63
C6
C6
CC
78
ENDCHAR

STARTCHAR P
ENCODING 80
SWIDTH 672 0
DWIDTH 7 0
BBX 8 8 0 0
BITMAP
3E
33
63
66
7C
C0
C0
C0
ENDCHAR

STARTCHAR Q
ENCODING 81
SWIDTH 768 0
DWIDTH 8 0
BBX 8 8 0 0
BITMAP
1E
33
63
63
C6
C6
CC
7F
ENDCHAR

STARTCHAR R
ENCODING 82
SWIDTH 768 0
DWIDTH 8 0
BBX 8 8 0 0
BITMAP
3E
33
63
7C
66
C6
CC
CC
ENDCHAR

STARTCHAR S
ENCODING 83
SWIDTH 672 0
DWIDTH 7 0
BBX 8 8 0 0
BITMAP
1E
33
30
38
1C
CC
CC
78
ENDCHAR

STARTCHAR T
ENCODING 84
SWIDTH 576 0
DWIDTH 6 0
BBX 6 8 1 0
BITMAP
FC
30
60
60
60
C0
C0
C0
ENDCHAR

STARTCHAR U
ENCODING 85
SWIDTH 672 0
DWIDTH 7 0
BBX 8 8 0 0
BITMAP
33
33
66
66
66
CC
CC
78
ENDCHAR

STARTCHAR V
ENCODING 86
SWIDTH 768 0
DWIDTH 8 0
BBX 7 8 2 0
BITMAP
C6
C6
CC
CC
D8
D8
70
60
ENDCHAR

STARTCHAR W
ENCODING 87
SWIDTH 960 0
DWIDTH 10 0
BBX 10 8 1 0
BITMAP
CCC0
CCC0
CD80
D580
D500
7700
6600
6600
ENDCHAR

STARTCHAR X
ENCODING 88
SWIDTH 672 0
DWIDTH 7 0
BBX 8 8 0 0
BITMAP
63
66
2C
38
38
6C
CC
CC
ENDCHAR

STARTCHAR Y
ENCODING 89
SWIDTH 672 0
DWIDTH 7 0
BBX 8 8 1 0
BITMAP
C3
C6
6C
78
30
30
60
60
ENDCHAR

STARTCHAR Z
ENCODING 90
SWIDTH 672 0
DWIDTH 7 0
BBX 8 8 0 0
BITMAP
3F
03
06
1C
38
60
C0
FC
ENDCHAR

STARTCHAR bracketleft
ENCODING 91
SWIDTH 384 0
DWIDTH 4 0
BBX 6 10 0 -2
BITMAP
1C
18
30
30
30
60
60
60
C0
E0
ENDCHAR

STARTCHAR backslash
ENCODING 92
SWIDTH 480 0
DWIDTH 5 0
BBX 2 8 2 0
BITMAP
80
80
80
80
40
40
40
40
ENDCHAR

STARTCHAR bracketright
ENCODING 93
SWIDTH 384 0
DWIDTH 4 0
BBX 6 10 0 -2
BITMAP
1C
0C
18
18
18
30
30
30
60
E0
ENDCHAR

STARTCHAR asciicircum
ENCODING 94
SWIDTH 576 0
DWIDTH 6 0
BBX 5 4 1 4
BITMAP
18
38
68
C8
ENDCHAR

STARTCHAR underscore
ENCODING 95
SWIDTH 576 0
DWIDTH 6 0
BBX 6 1 0 -2
BITMAP
FC
ENDCHAR

STARTCHAR quoteleft
ENCODING 96
SWIDTH 384 0
DWIDTH 4 0
BBX 2 3 2 5
BITMAP
40
80
C0
ENDCHAR

STARTCHAR a
ENCODING 97
SWIDTH 576 0
DWIDTH 6 0
BBX 6 6 0 0
BITMAP
38
4C
3C
D8
D8
6C
ENDCHAR

STARTCHAR b
ENCODING 98
SWIDTH 576 0
DWIDTH 6 0
BBX 6 8 0 0
BITMAP
30
30
78
6C
4C
C8
D8
F0
ENDCHAR

STARTCHAR c
ENCODING 99
SWIDTH 480 0
DWIDTH 5 0
BBX 5 6 0 0
BITMAP
38
68
C0
C0
D8
70
ENDCHAR

STARTCHAR d
ENCODING 100
SWIDTH 576 0
DWIDTH 6 0
BBX 7 8 0 0
BITMAP
06
06
3C
6C
4C
C8
D8
78
ENDCHAR

STARTCHAR e
ENCODING 101
SWIDTH 576 0
DWIDTH 6 0
BBX 6 6 0 0
BITMAP
38
6C
7C
C0
D8
70
ENDCHAR

STARTCHAR f
ENCODING 102
SWIDTH 288 0
DWIDTH 3 0
BBX 5 8 0 0
BITMAP
38
60
F0
60
60
C0
C0
C0
ENDCHAR

STARTCHAR g
ENCODING 103
SWIDTH 576 0
DWIDTH 6 0
BBX 6 8 0 -2
BITMAP
3C
6C
4C
C8
D8
78
30
E0
ENDCHAR

STARTCHAR h
ENCODING 104
SWIDTH 576 0
DWIDTH 6 0
BBX 6 8 0 0
BITMAP
30
30
78
6C
4C
D8
D8
D8
ENDCHAR

STARTCHAR i
ENCODING 105
SWIDTH 288 0
DWIDTH 3 0
BBX 4 8 0 0
BITMAP
30
00
60
60
60
C0
C0
C0
ENDCHAR

STARTCHAR j
ENCODING 106
SWIDTH 288 0
DWIDTH 3 0
BBX 5 10 0 -2
BITMAP
18
00
30
30
30
60
60
60
60
C0
ENDCHAR

STARTCHAR k
ENCODING 107
SWIDTH 576 0
DWIDTH 6 0
BBX 6 8 0 0
BITMAP
30
30
6C
78
70
D8
D8
CC
ENDCHAR

STARTCHAR l
ENCODING 108
SWIDTH 288 0
DWIDTH 3 0
BBX 4 8 0 0
BITMAP
30
30
60
60
60
C0
C0
C0
ENDCHAR

STARTCHAR m
ENCODING 109
SWIDTH 864 0
DWIDTH 9 0
BBX 9 6 0 0
BITMAP
5B00
6D80
6D80
DB00
DB00
DB00
ENDCHAR

STARTCHAR n
ENCODING 110
SWIDTH 576 0
DWIDTH 6 0
BBX 6 6 0 0
BITMAP
78
6C
4C
D8
D8
D8
ENDCHAR

STARTCHAR o
ENCODING 111
SWIDTH 576 0
DWIDTH 6 0
BBX 6 6 0 0
BITMAP
38
6C
CC
CC
D8
70
ENDCHAR

STARTCHAR p
ENCODING 112
SWIDTH 576 0
DWIDTH 6 0
BBX 7 8 0 -2
BITMAP
3C
36
26
64
6C
78
C0
C0
ENDCHAR

STARTCHAR q
ENCODING 113
SWIDTH 576 0
DWIDTH 6 0
BBX 6 8 0 -2
BITMAP
3C
6C
4C
C8
D8
78
30
30
ENDCHAR

STARTCHAR r
ENCODING 114
SWIDTH 384 0
DWIDTH 4 0
BBX 5 6 0 0
BITMAP
58
70
60
C0
C0
C0
ENDCHAR

STARTCHAR s
ENCODING 115
SWIDTH 576 0
DWIDTH 6 0
BBX 6 6 0 0
BITMAP
38
6C
30
18
D8
70
ENDCHAR

STARTCHAR t
ENCODING 116
SWIDTH 384 0
DWIDTH 4 0
BBX 5 8 0 0
BITMAP
30
30
F8
60
60
C0
C0
60
ENDCHAR

STARTCHAR u
ENCODING 117
SWIDTH 576 0
DWIDTH 6 0
BBX 6 6 0 0
BITMAP
6C
6C
CC
D8
D8
68
ENDCHAR

STARTCHAR v
ENCODING 118
SWIDTH 576 0
DWIDTH 6 0
BBX 5 6 1 0
BITMAP
D8
D8
D8
D0
E0
40
ENDCHAR

STARTCHAR w
ENCODING 119
SWIDTH 768 0
DWIDTH 8 0
BBX 7 6 1 0
BITMAP
D6
D6
D6
D4
F8
48
ENDCHAR

STARTCHAR x
ENCODING 120
SWIDTH 480 0
DWIDTH 5 0
BBX 7 6 0 0
BITMAP
66
3C
18
38
6C
CC
ENDCHAR

STARTCHAR y
ENCODING 121
SWIDTH 576 0
DWIDTH 6 0
BBX 6 8 0 -2
BITMAP
6C
6C
6C
38
30
30
60
C0
ENDCHAR

STARTCHAR z
ENCODING 122
SWIDTH 480 0
DWIDTH 5 0
BBX 6 6 0 0
BITMAP
7C
0C
38
60
C0
F8
ENDCHAR

STARTCHAR braceleft
ENCODING 123
SWIDTH 480 0
DWIDTH 5 0
BBX 6 10 0 -2
BITMAP
0C
18
30
30
C0
60
60
60
60
30
ENDCHAR

STARTCHAR bar
ENCODING 124
SWIDTH 384 0
DWIDTH 4 0
BBX 4 10 0 -2
BITMAP
10
10
20
20
20
40
40
40
80
80
ENDCHAR

STARTCHAR braceright
ENCODING 125
SWIDTH 480 0
DWIDTH 5 0
BBX 6 10 0 -2
BITMAP
30
18
18
18
0C
30
30
30
60
C0
ENDCHAR

STARTCHAR asciitilde
ENCODING 126
SWIDTH 576 0
DWIDTH 6 0
BBX 5 2 1 3
BITMAP
68
B0
ENDCHAR

STARTCHAR cent
ENCODING 162
SWIDTH 672 0
DWIDTH 7 0
BBX 6 8 1 -1
BITMAP
04
38
6C
D0
A0
D8
70
80
ENDCHAR

STARTCHAR sterling
ENCODING 163
SWIDTH 672 0
DWIDTH 7 0
BBX 6 7 0 0
BITMAP
38
6C
60
F0
40
EC
D8
ENDCHAR

STARTCHAR currency
ENCODING 164
SWIDTH 576 0
DWIDTH 6 0
BBX 6 6 0 1
BITMAP
44
38
68
58
70
88
ENDCHAR

STARTCHAR yen
ENCODING 165
SWIDTH 672 0
DWIDTH 7 0
BBX 7 8 0 0
BITMAP
62
66
6C
28
7C
30
F8
20
ENDCHAR

STARTCHAR brokenbar
ENCODING 166
SWIDTH 384 0
DWIDTH 4 0
BBX 3 9 1 -1
BITMAP
20
20
40
40
00
40
40
80
80
ENDCHAR

STARTCHAR section
ENCODING 167
SWIDTH 672 0
DWIDTH 7 0
BBX 7 10 0 -2
BITMAP
1C
36
30
78
4C
64
3C
18
D8
70
ENDCHAR

STARTCHAR dieresis
ENCODING 168
SWIDTH 384 0
DWIDTH 4 0
BBX 3 1 2 7
BITMAP
A0
ENDCHAR

STARTCHAR copyright
ENCODING 169
SWIDTH 960 0
DWIDTH 10 0
BBX 8 8 1 0
BITMAP
3C
42
99
A5
A1
9D
42
3C
ENDCHAR

STARTCHAR multiply
ENCODING 170
SWIDTH 576 0
DWIDTH 6 0
BBX 6 5 0 1
BITMAP
6C
38
30
70
D8
ENDCHAR

STARTCHAR guillemotleft
ENCODING 171
SWIDTH 768 0
DWIDTH 8 0
BBX 6 3 1 2
BITMAP
6C
D8
6C
ENDCHAR

STARTCHAR logicalnot
ENCODING 172
SWIDTH 672 0
DWIDTH 7 0
BBX 5 3 1 2
BITMAP
F8
08
08
ENDCHAR

STARTCHAR hyphen
ENCODING 173
SWIDTH 480 0
DWIDTH 5 0
BBX 4 1 1 3
BITMAP
F0
ENDCHAR

STARTCHAR registered
ENCODING 174
SWIDTH 960 0
DWIDTH 10 0
BBX 8 8 1 0
BITMAP
3C
42
BD
A5
B9
A5
42
3C
ENDCHAR

STARTCHAR macron
ENCODING 175
SWIDTH 384 0
DWIDTH 4 0
BBX 3 1 2 7
BITMAP
E0
ENDCHAR

STARTCHAR degree
ENCODING 176
SWIDTH 384 0
DWIDTH 4 0
BBX 3 3 1 4
BITMAP
60
A0
C0
ENDCHAR

STARTCHAR plusminus
ENCODING 177
SWIDTH 576 0
DWIDTH 6 0
BBX 6 7 0 0
BITMAP
18
18
7C
30
30
00
F8
ENDCHAR

STARTCHAR twosuperior
ENCODING 178
SWIDTH 288 0
DWIDTH 3 0
BBX 3 4 0 3
BITMAP
60
20
40
E0
ENDCHAR

STARTCHAR threesuperior
ENCODING 179
SWIDTH 288 0
DWIDTH 3 0
BBX 3 4 0 3
BITMAP
E0
40
20
C0
ENDCHAR

STARTCHAR acute
ENCODING 180
SWIDTH 288 0
DWIDTH 3 0
BBX 2 2 2 7
BITMAP
40
80
ENDCHAR

STARTCHAR mu
ENCODING 181
SWIDTH 576 0
DWIDTH 6 0
BBX 7 8 0 -2
BITMAP
36
36
26
6C
6C
74
C0
C0
ENDCHAR

STARTCHAR paragraph
ENCODING 182
SWIDTH 672 0
DWIDTH 7 0
BBX 7 10 1 -2
BITMAP
3E
74
E8
E8
68
50
50
A0
A0
A0
ENDCHAR

STARTCHAR periodcentered
ENCODING 183
SWIDTH 288 0
DWIDTH 3 0
BBX 1 2 1 2
BITMAP
80
80
ENDCHAR

STARTCHAR cedilla
ENCODING 184
SWIDTH 288 0
DWIDTH 3 0
BBX 3 3 0 -2
BITMAP
40
20
C0
ENDCHAR

STARTCHAR onesuperior
ENCODING 185
SWIDTH 288 0
DWIDTH 3 0
BBX 2 4 1 3
BITMAP
C0
40
80
80
ENDCHAR

STARTCHAR divide
ENCODING 186
SWIDTH 576 0
DWIDTH 6 0
BBX 5 5 1 1
BITMAP
30
00
F8
00
60
ENDCHAR

STARTCHAR guillemotright
ENCODING 187
SWIDTH 768 0
DWIDTH 8 0
BBX 6 3 1 2
BITMAP
D8
6C
D8
ENDCHAR

STARTCHAR onequarter
ENCODING 188
SWIDTH 864 0
DWIDTH 9 0
BBX 8 8 0 0
BITMAP
61
22
44
48
12
26
4F
84
ENDCHAR

STARTCHAR onehalf
ENCODING 189
SWIDTH 864 0
DWIDTH 9 0
BBX 8 8 0 0
BITMAP
61
22
44
48
16
22
44
8E
ENDCHAR

STARTCHAR threequarters
ENCODING 190
SWIDTH 864 0
DWIDTH 9 0
BBX 8 8 0 0
BITMAP
71
22
14
68
12
26
4F
84
ENDCHAR

STARTCHAR dblunderscore
ENCODING 223
SWIDTH 576 0
DWIDTH 6 0
BBX 6 6 0 -2
BITMAP
00
00
FC
00
00
FC
ENDCHAR

STARTCHAR aleph
ENCODING 224
SWIDTH 576 0
DWIDTH 6 0
BBX 6 7 0 0
BITMAP
4C
6C
7C
78
D0
D8
C8
ENDCHAR

STARTCHAR beth
ENCODING 225
SWIDTH 480 0
DWIDTH 5 0
BBX 5 7 0 0
BITMAP
70
10
10
10
20
F0
F0
ENDCHAR

STARTCHAR gimmel
ENCODING 226
SWIDTH 480 0
DWIDTH 5 0
BBX 5 7 0 0
BITMAP
30
18
18
30
70
B0
B0
ENDCHAR

STARTCHAR daleth
ENCODING 227
SWIDTH 576 0
DWIDTH 6 0
BBX 6 7 0 0
BITMAP
7C
18
18
18
30
30
30
ENDCHAR

STARTCHAR he
ENCODING 228
SWIDTH 480 0
DWIDTH 5 0
BBX 5 7 0 0
BITMAP
78
18
18
58
B0
B0
B0
ENDCHAR

STARTCHAR waw
ENCODING 229
SWIDTH 288 0
DWIDTH 3 0
BBX 3 7 0 0
BITMAP
60
60
60
60
C0
C0
C0
ENDCHAR

STARTCHAR zayin
ENCODING 230
SWIDTH 480 0
DWIDTH 5 0
BBX 4 7 1 0
BITMAP
F0
60
60
60
C0
C0
C0
ENDCHAR

STARTCHAR het
ENCODING 231
SWIDTH 480 0
DWIDTH 5 0
BBX 5 7 0 0
BITMAP
70
58
58
58
B0
B0
B0
ENDCHAR

STARTCHAR teth
ENCODING 232
SWIDTH 672 0
DWIDTH 7 0
BBX 7 7 0 0
BITMAP
4C
5E
56
86
8C
FC
70
ENDCHAR

STARTCHAR yod
ENCODING 233
SWIDTH 288 0
DWIDTH 3 0
BBX 3 5 0 2
BITMAP
60
60
60
C0
C0
ENDCHAR

STARTCHAR kaphfinal
ENCODING 234
SWIDTH 480 0
DWIDTH 5 0
BBX 5 9 0 -2
BITMAP
F0
18
18
18
30
30
30
60
60
ENDCHAR

STARTCHAR kaph
ENCODING 235
SWIDTH 576 0
DWIDTH 6 0
BBX 6 7 0 0
BITMAP
38
0C
0C
0C
18
F8
E0
ENDCHAR

STARTCHAR lamed
ENCODING 236
SWIDTH 576 0
DWIDTH 6 0
BBX 6 9 0 0
BITMAP
60
60
7C
0C
0C
1C
38
70
E0
ENDCHAR

STARTCHAR memfinal
ENCODING 237
SWIDTH 576 0
DWIDTH 6 0
BBX 6 7 0 0
BITMAP
78
6C
6C
CC
D8
F8
F8
ENDCHAR

STARTCHAR mem
ENCODING 238
SWIDTH 672 0
DWIDTH 7 0
BBX 7 7 0 0
BITMAP
5C
5E
66
46
4C
BC
BC
ENDCHAR

STARTCHAR nunfinal
ENCODING 239
SWIDTH 384 0
DWIDTH 4 0
BBX 4 9 0 -2
BITMAP
30
30
30
60
60
60
60
C0
C0
ENDCHAR

STARTCHAR nun
ENCODING 240
SWIDTH 480 0
DWIDTH 5 0
BBX 5 7 0 0
BITMAP
38
18
18
18
30
F0
F0
ENDCHAR

STARTCHAR samekh
ENCODING 241
SWIDTH 672 0
DWIDTH 7 0
BBX 7 7 0 0
BITMAP
7C
66
66
C6
CC
FC
70
ENDCHAR

STARTCHAR ayin
ENCODING 242
SWIDTH 576 0
DWIDTH 6 0
BBX 6 8 0 -1
BITMAP
6C
6C
6C
6C
68
78
F0
C0
ENDCHAR

STARTCHAR pefinal
ENCODING 243
SWIDTH 480 0
DWIDTH 5 0
BBX 5 9 0 -2
BITMAP
F0
D8
D8
D8
30
30
30
60
60
ENDCHAR

STARTCHAR pe
ENCODING 244
SWIDTH 576 0
DWIDTH 6 0
BBX 6 7 0 0
BITMAP
78
6C
6C
6C
18
F8
E0
ENDCHAR

STARTCHAR zadikfinal
ENCODING 245
SWIDTH 576 0
DWIDTH 6 0
BBX 6 9 0 -2
BITMAP
4C
4C
58
70
60
60
C0
C0
C0
ENDCHAR

STARTCHAR zadik
ENCODING 246
SWIDTH 576 0
DWIDTH 6 0
BBX 6 7 0 0
BITMAP
6C
6C
78
38
30
30
F0
ENDCHAR

STARTCHAR kof
ENCODING 247
SWIDTH 576 0
DWIDTH 6 0
BBX 6 9 0 -2
BITMAP
7C
0C
0C
68
78
78
D0
C0
C0
ENDCHAR

STARTCHAR resh
ENCODING 248
SWIDTH 576 0
DWIDTH 6 0
BBX 6 7 0 0
BITMAP
7C
0C
0C
0C
18
18
18
ENDCHAR

STARTCHAR shin
ENCODING 249
SWIDTH 672 0
DWIDTH 7 0
BBX 7 7 0 0
BITMAP
56
56
66
8C
9C
F8
60
ENDCHAR

STARTCHAR taf
ENCODING 250
SWIDTH 672 0
DWIDTH 7 0
BBX 7 7 0 0
BITMAP
3C
16
16
26
2C
EC
CC
ENDCHAR
ENDFONT
